# xmcd
#
# Track frame offsets: 
#        150
#        16009
#        31280
#        48278
#        60094
#        74415
#        95918
#        107741
#        130889
#        145521
#        161747
#        179027
#        195078
#        210927
#        225365
#        241393
#        258528
#        274272
#        290877
#        305992
#        325321
#
# Disc length: 4597 seconds
#
# Revision: 5
# Processed by: cddbd v1.5.2PL0 Copyright (c) Steve Scherf et al.
# Submitted via: ExactAudioCopyFreeDBPlugin 1.0
#
DISCID=3011f315
DTITLE=The Mavericks - Gold [CD1-2]
DYEAR=2006
DGENRE=Country
TTITLE0=The end of the line  (1992)
TTITLE1=Mr. Jones  (1992)
TTITLE2=This broken heart  (1992)
TTITLE3=Excuse me (I think I've got a heartache)  (1992)
TTITLE4=I got you  (1992)
TTITLE5=From hell to paradise  (1992)
TTITLE6=Hey good lookin'  (1992)
TTITLE7=I should have been true  (1994)
TTITLE8=There goes my heart  (1994)
TTITLE9=Pretend  (1994)
TTITLE10=What a crying shame  (1994)
TTITLE11=All that heaven would allow  (1994)
TTITLE12=The things you said to me  (1994)
TTITLE13=O what a thrill  (1994)
TTITLE14=Foolish heart  (1995)
TTITLE15=Here comes the rain  (1995)
TTITLE16=Missing you  (1995)
TTITLE17=I'm not gonna cry for you  (1995)
TTITLE18=The writing on the wall  (1995)
TTITLE19=Loving you  (1995)
TTITLE20=All you ever do is bring me down [featuring Flaco Jimenez]  (
TTITLE20=1995)
EXTD=YEAR: 2006
EXTT0=
EXTT1=
EXTT2=
EXTT3=
EXTT4=
EXTT5=
EXTT6=
EXTT7=
EXTT8=
EXTT9=
EXTT10=
EXTT11=
EXTT12=
EXTT13=
EXTT14=
EXTT15=
EXTT16=
EXTT17=
EXTT18=
EXTT19=
EXTT20=
PLAYORDER=
